# xmcd CD database file
#
# Track frame offsets:
#	225
#	16005
#	37273
#	58968
#	94243
#	125079
#	162722
#	166291
#	179290
#	205244
#	223574
#	253303
#	270529
#
# Disc length: 3963 seconds
#
# Revision: 0
# Processed by: cddbd v1.5PL3 Copyright (c) Steve Scherf et al.
# Submitted via: CDex 1.51
#
DISCID=c80f780d
DTITLE=The Mentones - Lucostland
DYEAR=2004
DGENRE=Jazz
TTITLE0=Broom
TTITLE1=Graveyard
TTITLE2=Mojave boxcar
TTITLE3=Drifter
TTITLE4=Honky tonk burn
TTITLE5=Westpoint, Mississipi
TTITLE6=Small fry
TTITLE7=Burnt umber
TTITLE8=Nighthawk
TTITLE9=Howl and Tumble
TTITLE10=Gasoline jelly
TTITLE11=Lightning bug
TTITLE12=Nowhere calling
EXTD=YEAR: 2004
EXTT0=
EXTT1=
EXTT2=
EXTT3=
EXTT4=
EXTT5=
EXTT6=
EXTT7=
EXTT8=
EXTT9=
EXTT10=
EXTT11=
EXTT12=
PLAYORDER=
